<svg width="247" height="91" viewBox="0 0 247 91" fill="none" xmlns="http://www.w3.org/2000/svg">
<rect width="247" height="91" rx="10" fill="#0C0C0C"/>
<path d="M39.1057 39.3745C38.9872 38.1789 38.4783 37.25 37.579 36.5879C36.6798 35.9259 35.4595 35.5949 33.918 35.5949C32.8706 35.5949 31.9862 35.7431 31.2648 36.0395C30.5435 36.3261 29.9901 36.7263 29.6047 37.2401C29.2292 37.754 29.0415 38.337 29.0415 38.9891C29.0217 39.5326 29.1354 40.0069 29.3824 40.4121C29.6393 40.8172 29.9901 41.168 30.4348 41.4644C30.8794 41.751 31.3933 42.003 31.9763 42.2204C32.5593 42.4279 33.1818 42.6057 33.8439 42.754L36.5711 43.4061C37.8953 43.7026 39.1107 44.0978 40.2174 44.5919C41.3241 45.086 42.2826 45.6937 43.0929 46.415C43.9032 47.1364 44.5306 47.9862 44.9753 48.9644C45.4298 49.9427 45.6621 51.0642 45.6719 52.3291C45.6621 54.1868 45.1877 55.7974 44.249 57.1611C43.3202 58.5148 41.9763 59.5672 40.2174 60.3182C38.4684 61.0593 36.3587 61.4298 33.8883 61.4298C31.4377 61.4298 29.3034 61.0543 27.4852 60.3034C25.6769 59.5524 24.2638 58.4407 23.246 56.9684C22.2381 55.4862 21.7095 53.6532 21.6601 51.4694H27.8706C27.9397 52.4872 28.2312 53.337 28.7451 54.0188C29.2688 54.6907 29.9654 55.1996 30.835 55.5455C31.7144 55.8814 32.7075 56.0494 33.8142 56.0494C34.9012 56.0494 35.8449 55.8913 36.6453 55.5751C37.4555 55.2589 38.083 54.8192 38.5277 54.2559C38.9723 53.6927 39.1947 53.0455 39.1947 52.3142C39.1947 51.6324 38.9921 51.0593 38.587 50.5949C38.1917 50.1304 37.6087 49.7352 36.8379 49.4091C36.0771 49.083 35.1433 48.7866 34.0366 48.5198L30.7312 47.6897C28.1719 47.0672 26.1512 46.0939 24.669 44.7698C23.1868 43.4457 22.4506 41.6621 22.4605 39.419C22.4506 37.581 22.9397 35.9753 23.9279 34.6018C24.9259 33.2283 26.2945 32.1561 28.0336 31.3854C29.7727 30.6146 31.749 30.2293 33.9624 30.2293C36.2154 30.2293 38.1818 30.6146 39.8617 31.3854C41.5514 32.1561 42.8656 33.2283 43.8043 34.6018C44.7431 35.9753 45.2273 37.5662 45.2569 39.3745H39.1057ZM56.1845 47.8379V61H49.8703V30.6443H56.0067V42.25H56.2735C56.7873 40.9061 57.6173 39.8538 58.7636 39.0929C59.9098 38.3221 61.3476 37.9368 63.0768 37.9368C64.6578 37.9368 66.0363 38.2826 67.2122 38.9743C68.398 39.6561 69.3169 40.6393 69.9691 41.9239C70.6312 43.1986 70.9573 44.7253 70.9474 46.504V61H64.6331V47.6304C64.643 46.2273 64.2873 45.1354 63.5659 44.3547C62.8545 43.5741 61.8565 43.1838 60.5719 43.1838C59.7122 43.1838 58.9513 43.3666 58.2893 43.7322C57.6371 44.0978 57.1233 44.6314 56.7478 45.333C56.3822 46.0247 56.1944 46.8597 56.1845 47.8379ZM86.203 61.4447C83.9007 61.4447 81.9096 60.9555 80.2297 59.9773C78.5598 58.9891 77.2702 57.6156 76.3612 55.8567C75.4521 54.0879 74.9975 52.0376 74.9975 49.7055C74.9975 47.3538 75.4521 45.2984 76.3612 43.5395C77.2702 41.7708 78.5598 40.3972 80.2297 39.419C81.9096 38.4308 83.9007 37.9368 86.203 37.9368C88.5054 37.9368 90.4916 38.4308 92.1615 39.419C93.8414 40.3972 95.1359 41.7708 96.0449 43.5395C96.954 45.2984 97.4086 47.3538 97.4086 49.7055C97.4086 52.0376 96.954 54.0879 96.0449 55.8567C95.1359 57.6156 93.8414 58.9891 92.1615 59.9773C90.4916 60.9555 88.5054 61.4447 86.203 61.4447ZM86.2327 56.5534C87.2801 56.5534 88.1546 56.2569 88.8562 55.664C89.5578 55.0613 90.0864 54.2411 90.4422 53.2036C90.8078 52.166 90.9906 50.9852 90.9906 49.6611C90.9906 48.337 90.8078 47.1561 90.4422 46.1186C90.0864 45.081 89.5578 44.2609 88.8562 43.6581C88.1546 43.0553 87.2801 42.754 86.2327 42.754C85.1754 42.754 84.2861 43.0553 83.5647 43.6581C82.8532 44.2609 82.3147 45.081 81.9491 46.1186C81.5934 47.1561 81.4155 48.337 81.4155 49.6611C81.4155 50.9852 81.5934 52.166 81.9491 53.2036C82.3147 54.2411 82.8532 55.0613 83.5647 55.664C84.2861 56.2569 85.1754 56.5534 86.2327 56.5534ZM101.514 69.5375V38.2332H107.74V42.0573H108.021C108.298 41.4447 108.698 40.8221 109.222 40.1897C109.755 39.5474 110.447 39.0138 111.297 38.5889C112.157 38.1542 113.224 37.9368 114.498 37.9368C116.159 37.9368 117.69 38.3715 119.093 39.2411C120.497 40.1008 121.618 41.4002 122.458 43.1393C123.298 44.8686 123.718 47.0376 123.718 49.6462C123.718 52.1858 123.308 54.33 122.488 56.0791C121.677 57.8182 120.571 59.1374 119.167 60.0366C117.774 60.9259 116.213 61.3706 114.484 61.3706C113.258 61.3706 112.216 61.168 111.356 60.7628C110.506 60.3577 109.81 59.8488 109.266 59.2362C108.723 58.6136 108.308 57.9862 108.021 57.3538H107.829V69.5375H101.514ZM107.695 49.6166C107.695 50.9704 107.883 52.1512 108.258 53.1591C108.634 54.167 109.177 54.9526 109.889 55.5158C110.6 56.0692 111.465 56.3459 112.483 56.3459C113.51 56.3459 114.38 56.0642 115.091 55.501C115.803 54.9279 116.341 54.1374 116.707 53.1294C117.082 52.1117 117.27 50.9407 117.27 49.6166C117.27 48.3024 117.087 47.1462 116.722 46.1482C116.356 45.1502 115.818 44.3696 115.106 43.8063C114.395 43.2431 113.52 42.9615 112.483 42.9615C111.455 42.9615 110.585 43.2332 109.874 43.7767C109.172 44.3202 108.634 45.0909 108.258 46.0889C107.883 47.087 107.695 48.2628 107.695 49.6166ZM163.097 30.6443V61H157.553L144.347 41.8943H144.124V61H137.706V30.6443H143.339L156.441 49.7352H156.708V30.6443H163.097ZM178.567 61.4447C176.265 61.4447 174.274 60.9555 172.594 59.9773C170.924 58.9891 169.634 57.6156 168.725 55.8567C167.816 54.0879 167.362 52.0376 167.362 49.7055C167.362 47.3538 167.816 45.2984 168.725 43.5395C169.634 41.7708 170.924 40.3972 172.594 39.419C174.274 38.4308 176.265 37.9368 178.567 37.9368C180.87 37.9368 182.856 38.4308 184.526 39.419C186.205 40.3972 187.5 41.7708 188.409 43.5395C189.318 45.2984 189.773 47.3538 189.773 49.7055C189.773 52.0376 189.318 54.0879 188.409 55.8567C187.5 57.6156 186.205 58.9891 184.526 59.9773C182.856 60.9555 180.87 61.4447 178.567 61.4447ZM178.597 56.5534C179.644 56.5534 180.519 56.2569 181.22 55.664C181.922 55.0613 182.451 54.2411 182.806 53.2036C183.172 52.166 183.355 50.9852 183.355 49.6611C183.355 48.337 183.172 47.1561 182.806 46.1186C182.451 45.081 181.922 44.2609 181.22 43.6581C180.519 43.0553 179.644 42.754 178.597 42.754C177.539 42.754 176.65 43.0553 175.929 43.6581C175.217 44.2609 174.679 45.081 174.313 46.1186C173.957 47.1561 173.78 48.337 173.78 49.6611C173.78 50.9852 173.957 52.166 174.313 53.2036C174.679 54.2411 175.217 55.0613 175.929 55.664C176.65 56.2569 177.539 56.5534 178.597 56.5534ZM197.799 61L191.603 38.2332H197.992L201.519 53.5296H201.727L205.403 38.2332H211.672L215.408 53.4407H215.6L219.069 38.2332H225.442L219.261 61H212.577L208.664 46.6818H208.382L204.469 61H197.799Z" fill="white"/>
</svg>
